<svg width="56" height="56" viewBox="0 0 56 56" fill="none" xmlns="http://www.w3.org/2000/svg">
<path fill-rule="evenodd" clip-rule="evenodd" d="M28.0569 1.86271C28.0228 1.79958 27.454 1.7575 26.6577 1.76802C25.9297 1.77854 24.8605 1.84167 24.3031 1.91532C23.7344 1.98897 22.8471 2.12576 22.3125 2.22045C21.7779 2.31515 20.902 2.5361 20.3446 2.70445C19.7986 2.88332 19.0365 3.1674 18.6384 3.34627C18.2516 3.52514 17.6033 3.88287 17.1938 4.12487C16.7843 4.36687 15.9994 4.99817 15.442 5.50321C14.896 6.01877 14.2135 6.74476 13.9519 7.12354C13.6789 7.50232 13.258 8.18623 13.0077 8.64919C12.7575 9.11214 12.4049 9.8697 12.2343 10.3221C11.9158 11.1218 11.8816 11.1744 11.3925 11.3638C11.1081 11.4795 10.8579 11.6058 10.8238 11.6373C10.7896 11.6689 10.6645 11.7215 10.5394 11.7426C10.4143 11.7531 10.1526 11.8478 9.97062 11.9319C9.77725 12.0266 9.345 12.3002 9.00375 12.5422C8.6625 12.7842 8.18475 13.1945 7.94588 13.4471C7.707 13.6996 7.39987 14.0994 7.252 14.3309C7.1155 14.5624 6.86525 15.1305 6.706 15.5935C6.54675 16.0564 6.35337 16.6772 6.27375 16.9613C6.23472 17.1298 6.15851 17.4393 6.07274 17.7875C6.00855 18.0482 5.9389 18.331 5.87562 18.5922C5.72775 19.2024 5.53437 20.2335 5.432 20.8859C5.32963 21.5277 5.25 22.7377 5.25 23.5689C5.25 24.6105 5.31825 25.3471 5.46612 26.0099C5.57987 26.5255 5.8415 27.3146 6.03487 27.746C6.22825 28.1774 6.64912 28.8508 6.95625 29.2506C7.32025 29.6925 7.58188 29.9345 7.6615 29.8819C7.74113 29.8503 7.77525 29.8609 7.72975 29.9135C7.67287 29.9661 7.83212 30.166 8.071 30.3554C8.2985 30.5448 8.87863 30.8709 9.35638 31.0919L10.2209 31.4812C10.3346 33.5224 10.4484 34.5114 10.528 35.0059C10.619 35.5005 10.9716 36.6578 11.3243 37.5837C11.6769 38.5097 11.9612 39.2988 11.9612 39.3514C11.9612 39.3935 11.7337 39.5723 11.4494 39.7407C10.9602 40.0458 10.9261 40.0458 10.5962 39.8985C10.4029 39.8143 10.1299 39.7407 9.97062 39.7407C9.81138 39.7407 9.28813 39.9932 8.77625 40.3194C8.27575 40.635 7.86625 40.9402 7.86625 41.0033C7.86625 41.0664 7.80937 41.0875 7.7525 41.0559C7.68425 41.0243 7.53637 41.098 7.41125 41.2137C7.24062 41.3715 7.18375 41.5609 7.18375 41.9818C7.18375 42.2869 7.2975 42.8551 7.44537 43.2654C7.59325 43.6758 7.91175 44.3807 8.13925 44.8437C8.37812 45.3066 8.9355 46.2326 9.37913 46.8954C9.82275 47.5583 10.5735 48.5789 11.0399 49.1576C11.5176 49.7363 12.4049 50.6937 13.0419 51.2724C13.6675 51.8616 14.4637 52.514 14.805 52.7244C15.1462 52.9348 15.6354 53.1348 15.8856 53.1663L16.2496 53.0401C16.443 53.0927 16.7729 52.9349 17.5577 52.4193C18.172 52.0195 18.6725 51.6091 18.7521 51.4408C18.8317 51.283 18.8659 51.0094 18.8204 50.841C18.7635 50.557 18.8204 50.4938 19.2868 50.1887C19.5711 49.9993 19.8441 49.8415 19.8896 49.8415C19.9465 49.8415 20.2309 50.0414 20.5494 50.2939C20.8565 50.5359 21.4707 50.9989 21.9144 51.3145C22.3466 51.6302 23.268 52.2299 23.9619 52.6613C24.6444 53.0927 25.5999 53.6082 26.0662 53.8187C26.7829 54.1448 27.2379 54.2184 28 54.25C28 54.25 28.8531 54.2395 29.4219 54.0291C29.7972 53.8818 30.5594 53.503 31.1281 53.1874C31.6855 52.8612 32.7092 52.2089 33.4031 51.7249C34.0856 51.2514 34.9388 50.6306 35.28 50.357C35.6213 50.073 35.9511 49.8415 36.0194 49.8415C36.0762 49.8415 36.3493 49.9783 36.6109 50.1571C37.0659 50.4517 37.1 50.5043 37.1 50.9778C37.0886 51.3145 37.1569 51.5249 37.2934 51.6512C37.4071 51.7459 37.9872 52.1352 38.5787 52.514C39.1702 52.8928 39.7731 53.2084 39.9096 53.2084C40.0575 53.2084 40.4101 53.0927 40.7059 52.9559C41.013 52.8191 41.5817 52.4298 41.9912 52.0826C42.299 51.8296 42.6453 51.523 42.8805 51.3149C42.9582 51.2461 43.0238 51.188 43.0719 51.1462C43.2539 50.9673 43.6747 50.5359 43.9932 50.1992C44.3117 49.8625 44.9032 49.1576 45.3014 48.6315C45.7109 48.1054 46.2569 47.3689 46.5185 46.9796C46.7801 46.5798 47.3034 45.6854 47.6674 44.9805C48.0314 44.265 48.4181 43.4128 48.5205 43.0866C48.6229 42.7499 48.7025 42.2448 48.7025 41.9502C48.7025 41.6556 48.6343 41.361 48.5546 41.2979C48.475 41.2243 47.9062 40.8455 47.3034 40.4562C46.7005 40.0563 46.0863 39.7407 45.9384 39.7407C45.8019 39.7407 45.5289 39.7933 45.3469 39.8564C45.0853 39.9406 44.926 39.9301 44.6644 39.8143C44.471 39.7302 44.2435 39.5829 44.1525 39.4882C44.0046 39.3303 44.0387 39.141 44.5961 37.6574C44.9374 36.7525 45.2104 35.8898 45.2104 35.7425C45.2104 35.5952 45.2445 35.4584 45.29 35.4268C45.3355 35.3952 45.4379 34.9428 45.5061 34.4273C45.563 33.9117 45.654 33.0279 45.6995 32.4807L45.7791 31.4812C47.1214 30.8815 47.7811 30.4711 48.1224 30.1975C48.4523 29.924 48.9755 29.3663 49.2599 28.956C49.5556 28.5351 49.931 27.8302 50.113 27.3251C50.2836 26.8306 50.4997 25.9784 50.5908 25.4312C50.6818 24.8841 50.75 23.9582 50.75 23.3795C50.75 22.8008 50.6249 21.5487 50.477 20.5913C50.3291 19.6338 50.0448 18.2344 49.84 17.4874C49.6353 16.7403 49.3281 15.7408 49.1461 15.2778C48.9528 14.8149 48.6001 14.1836 48.3613 13.889C48.111 13.5838 47.7129 13.163 47.474 12.9631C47.2465 12.7526 46.6436 12.3633 46.1431 12.0792C45.6426 11.8057 44.9601 11.4795 44.6303 11.3743C44.0729 11.1849 44.0274 11.1428 43.8454 10.6483C43.743 10.3642 43.4586 9.69083 43.2197 9.17527C42.9695 8.65971 42.4917 7.83902 42.1505 7.36554C41.8092 6.88155 41.4566 6.4712 41.3656 6.43964C41.2746 6.40807 41.195 6.3239 41.195 6.26077C41.195 6.18712 40.831 5.78729 40.376 5.37695C39.921 4.9666 39.2157 4.43 38.8063 4.17748C38.3968 3.92496 37.6005 3.51462 37.0431 3.27262C36.4744 3.0201 35.4847 2.6834 34.825 2.50454C34.1653 2.33619 33.1643 2.11523 32.6069 2.03106C32.0381 1.94689 30.8892 1.83115 30.0361 1.78906C28.8531 1.72593 28.4436 1.73645 28.2957 1.84167C28.182 1.91532 28.091 1.92584 28.0569 1.86271ZM26.1429 30.3023L25.8501 30.3554C25.3724 30.4395 24.6785 30.6289 24.3031 30.7762C23.9278 30.9235 23.2908 31.2392 22.8813 31.4812C22.4718 31.7232 21.7893 32.2177 21.357 32.5965C20.9361 32.9647 20.356 33.575 20.0944 33.9538C19.8214 34.3326 19.4574 34.9218 19.2868 35.269C19.1275 35.6162 18.8886 36.2054 18.7635 36.5842C18.6498 36.963 18.5246 37.7205 18.4791 38.2677C18.445 38.8569 18.4678 39.6355 18.5474 40.1616C18.627 40.6561 18.7635 41.2874 18.8659 41.582C18.9569 41.8661 19.264 42.5079 19.537 43.0024C19.81 43.4969 20.3105 44.2124 20.6631 44.6017C21.0044 45.0015 21.6641 45.5697 22.1078 45.8853C22.5628 46.201 23.2225 46.6008 23.5638 46.7692C23.905 46.948 24.6444 47.2216 25.2131 47.3689C25.9411 47.5688 26.6123 47.6635 27.545 47.7056C28.4664 47.7477 29.1261 47.7161 29.7631 47.6004C30.2636 47.5162 31.0826 47.2847 31.5831 47.0953C32.0836 46.9059 32.8458 46.5272 33.2894 46.2536C33.7216 45.98 34.3928 45.454 34.7795 45.0857C35.1549 44.728 35.6895 44.1177 35.9625 43.7389C36.2355 43.3601 36.5768 42.8025 36.7246 42.4974C36.8725 42.2028 37.1 41.5609 37.2365 41.0769C37.4413 40.393 37.4868 39.9511 37.4868 38.899C37.4754 37.8994 37.4185 37.3838 37.2251 36.742C37.0886 36.2791 36.7815 35.5215 36.5426 35.0586C36.3038 34.5956 35.8829 33.9538 35.6213 33.6381C35.3483 33.3225 34.9501 32.8806 34.7226 32.6491C34.4951 32.4281 33.9264 32.0073 33.46 31.7127C32.9936 31.4181 32.277 31.0393 31.8675 30.8709C31.458 30.7026 30.7414 30.4711 30.275 30.3659C29.8086 30.2502 28.9896 30.1449 28.455 30.1239C27.9204 30.1029 27.3175 30.1029 27.1014 30.1344C26.9291 30.1596 26.5328 30.2315 26.1429 30.3023ZM30.4911 32.5965C30.5025 32.6491 30.4343 32.6912 30.3433 32.6912C30.2523 32.6912 29.9679 32.87 29.7063 33.091C29.456 33.3014 29.183 33.6486 29.1148 33.8486C29.0465 34.0485 29.0238 34.4062 29.0693 34.6377C29.1034 34.8692 29.2513 35.2164 29.3878 35.4058C29.5356 35.5952 29.8541 35.8372 30.1044 35.9529C30.3546 36.0686 30.7869 36.1633 31.0713 36.1633C31.4239 36.1633 31.7083 36.0897 31.9813 35.9213C32.1974 35.7951 32.4931 35.4899 32.6296 35.269C32.7775 35.027 32.8913 34.6693 32.8913 34.4273C32.8913 34.1958 32.7889 33.8065 32.6638 33.5645C32.5045 33.2383 32.2884 33.0279 31.9016 32.828C31.5945 32.6701 31.1623 32.5334 30.9234 32.5228C30.6731 32.5123 30.4798 32.5439 30.4911 32.5965ZM23.7003 33.0068C23.8368 32.9227 24.1553 32.7754 24.4055 32.6807C24.7581 32.5649 24.9856 32.5439 25.3269 32.6175C25.5771 32.6701 25.9184 32.8069 26.089 32.9332C26.2483 33.0594 26.4985 33.354 26.6464 33.5855C26.8398 33.9117 26.8853 34.1326 26.8511 34.543C26.817 34.9323 26.7146 35.1848 26.4644 35.4794C26.2824 35.7004 25.9525 35.9529 25.7591 36.0265C25.5544 36.1002 25.179 36.1633 24.9288 36.1633C24.6785 36.1633 24.3373 36.1002 24.1666 36.016C23.9846 35.9319 23.7116 35.7319 23.541 35.5636C23.3704 35.4058 23.177 35.1427 23.1201 34.9849C23.0519 34.8166 22.995 34.5325 22.995 34.3536C22.995 34.1642 23.0974 33.817 23.2225 33.5855C23.359 33.354 23.5751 33.091 23.7003 33.0068ZM21.7665 37.4259C21.539 37.4575 21.1636 37.5732 20.9475 37.689C20.7086 37.8152 20.447 38.0993 20.2878 38.3729C20.0944 38.7201 20.0375 38.9726 20.0603 39.3198C20.083 39.5829 20.2195 39.9722 20.356 40.1931C20.5039 40.4246 20.7996 40.6771 21.084 40.8034C21.357 40.9296 21.7665 41.0349 22.0054 41.0454C22.2329 41.0559 22.4263 41.0349 22.4263 41.0033C22.4263 40.9717 22.6083 40.8876 22.8244 40.8244C23.086 40.7297 23.3249 40.5298 23.5296 40.2457C23.723 39.9722 23.8595 39.6039 23.8823 39.3198C23.9164 38.9726 23.8481 38.7201 23.6548 38.3834C23.4614 38.0362 23.2453 37.8573 22.7903 37.6469C22.3353 37.4364 22.085 37.3838 21.7665 37.4259ZM33.3463 37.5101C33.2553 37.5417 33.0391 37.6574 32.8685 37.7626C32.6865 37.8678 32.4476 38.1414 32.3225 38.3729C32.1974 38.6043 32.095 38.9937 32.095 39.2462C32.095 39.5513 32.186 39.8354 32.4135 40.1616C32.5955 40.4246 32.8913 40.7087 33.096 40.7929C33.3008 40.877 33.4714 40.9717 33.46 41.0033C33.46 41.0349 33.6761 41.0559 33.9491 41.0454C34.2449 41.0454 34.6316 40.9296 34.9615 40.7613C35.3596 40.5509 35.5758 40.3509 35.735 40.0353C35.8601 39.7828 35.9625 39.425 35.9625 39.2462C35.9625 39.0568 35.8943 38.7411 35.8033 38.5623C35.7236 38.3729 35.5075 38.0888 35.3255 37.931C35.1435 37.7731 34.8591 37.5943 34.6771 37.5417C34.5065 37.4785 34.1766 37.4259 33.9378 37.4364C33.7103 37.4364 33.4373 37.468 33.3463 37.5101ZM29.3878 42.7183C29.5356 42.5289 29.8314 42.2869 30.0475 42.1712C30.2978 42.0344 30.6618 41.9502 31.0144 41.9502C31.4239 41.9502 31.6969 42.0134 31.9813 42.1817C32.1974 42.3185 32.4931 42.5921 32.6296 42.792C32.8116 43.034 32.8913 43.3075 32.8913 43.6127C32.8913 43.8547 32.8344 44.1808 32.7661 44.3492C32.7093 44.507 32.4818 44.7911 32.2884 44.97C32.0836 45.1593 31.7196 45.3698 31.4694 45.4329C31.2191 45.496 30.821 45.5171 30.5821 45.4855C30.3205 45.4434 29.9906 45.2751 29.6949 45.0331C29.4446 44.8121 29.183 44.4649 29.1148 44.265C29.0465 44.0651 29.0238 43.7074 29.0693 43.4759C29.1034 43.2444 29.2513 42.9077 29.3878 42.7183ZM24.2812 42.1712C24.0651 42.2869 23.7694 42.5289 23.6215 42.7183C23.485 42.9077 23.3371 43.2444 23.303 43.4759C23.2575 43.7074 23.2802 44.0651 23.3485 44.265C23.4167 44.4649 23.6784 44.8121 23.9286 45.0331C24.2244 45.2751 24.5542 45.4434 24.8159 45.4855C25.0547 45.5171 25.4529 45.496 25.7031 45.4329C25.9534 45.3698 26.3174 45.1594 26.5221 44.97C26.7155 44.7911 26.943 44.507 26.9999 44.3492C27.0681 44.1808 27.125 43.8547 27.125 43.6127C27.125 43.3075 27.0454 43.034 26.8634 42.792C26.7269 42.5921 26.4311 42.3185 26.215 42.1817C25.9306 42.0134 25.6576 41.9502 25.2481 41.9502C24.8955 41.9502 24.5315 42.0344 24.2812 42.1712ZM26.4189 38.1519C26.5781 37.952 26.8853 37.71 27.1014 37.6153C27.3175 37.5101 27.6929 37.4259 27.9431 37.4364C28.1934 37.4364 28.637 37.5417 28.9214 37.6679C29.3423 37.8468 29.5015 38.0046 29.6949 38.3729C29.82 38.6359 29.9224 39.0147 29.9338 39.2146C29.9338 39.4145 29.82 39.7933 29.6721 40.0458C29.5053 40.3474 29.2513 40.5929 28.91 40.7823C28.6029 40.9507 28.2389 41.0559 28 41.0559C27.7839 41.0454 27.363 40.9191 27.0559 40.7613C26.6464 40.5403 26.4644 40.3615 26.271 39.9827C26.1004 39.625 26.0435 39.3409 26.0776 38.9937C26.1118 38.699 26.2369 38.3834 26.4189 38.1519ZM26.4075 29.0086C26.0662 29.0612 25.4747 29.1664 25.0993 29.2611C24.724 29.3453 24.3827 29.3979 24.3258 29.3663C24.2803 29.3453 24.2462 29.3663 24.2462 29.4295C24.2462 29.4926 24.0756 29.5873 23.8708 29.6399C23.6775 29.703 23.0405 30.0081 22.4831 30.3133C21.9257 30.6184 21.175 31.1129 20.8337 31.4075L19.9123 32.2177C19.7758 32.3334 19.4573 32.7122 19.1843 33.0594C18.9113 33.4066 18.4905 34.0905 18.2288 34.5851C17.9786 35.0796 17.6487 35.8792 17.5122 36.3738C17.2847 37.1313 17.2506 37.5206 17.2506 39.0042C17.2506 40.5298 17.2847 40.8349 17.5236 41.5294C17.6601 41.9608 17.9445 42.6447 18.1265 43.055C18.3198 43.4654 18.6383 44.0335 18.8431 44.3176C19.0365 44.6122 19.5597 45.2014 19.992 45.6328C20.4128 46.0642 21.0271 46.6113 21.3456 46.8533C21.6527 47.0953 22.3807 47.5057 22.9381 47.7582C23.4955 48.0212 24.3941 48.3684 24.9287 48.5157C25.4633 48.6736 26.3847 48.8419 26.9762 48.8945C27.6132 48.9577 28.4322 48.9577 28.9668 48.8945C29.4673 48.8524 30.2295 48.7262 30.6731 48.6315C31.1167 48.5368 31.822 48.3158 32.2656 48.137C32.7092 47.9581 33.2552 47.6951 33.4827 47.5688C33.7216 47.432 33.915 47.3373 33.915 47.3689C33.915 47.4005 34.0515 47.3163 34.2221 47.19L34.3366 47.0921L34.4787 46.971C34.7252 46.7609 35.0874 46.4524 35.4278 46.1589C35.917 45.7275 36.5426 45.0962 36.7928 44.7595C37.1916 44.223 37.625 43.5859 37.9417 42.8761C38.0896 42.571 38.283 42.0555 38.3853 41.7398C38.4877 41.4242 38.6242 40.7613 38.7038 40.2668C38.7835 39.7302 38.8062 38.9305 38.7721 38.2677C38.738 37.6574 38.5901 36.8157 38.465 36.3738C38.3285 35.9424 38.0327 35.2058 37.7938 34.7429C37.5663 34.2799 37.1796 33.6381 36.9521 33.3225C36.7246 33.0068 36.2355 32.4597 35.8828 32.102C35.5188 31.7547 34.9387 31.2602 34.5975 31.0182C34.2562 30.7657 33.642 30.3869 33.2325 30.166C32.823 29.945 32.0267 29.6294 31.4693 29.4505C30.912 29.2716 30.1157 29.0717 29.7062 29.0191C29.2967 28.956 28.5346 28.9139 28 28.9139C27.4653 28.9244 26.7487 28.9665 26.4075 29.0086ZM32.9605 13.7522C32.8809 13.7943 32.5737 13.8469 32.2552 13.889C31.9481 13.9311 31.4704 14.0574 31.2087 14.1626C30.9357 14.2783 30.6628 14.4782 30.5831 14.615C30.5149 14.7413 30.4352 15.2989 30.4011 15.846C30.3556 16.6352 30.4011 17.0245 30.5945 17.7399C30.731 18.2345 31.0381 19.0131 31.277 19.476C31.5272 19.939 32.0732 20.7702 32.4941 21.3173C32.915 21.8644 33.6885 22.8114 34.2117 23.4216L34.343 23.5747C34.8072 24.1159 35.1796 24.5501 35.19 24.579C35.2014 24.6106 35.8043 25.1577 36.5209 25.7995C37.2375 26.4414 38.1134 27.1358 38.4546 27.3462C38.7959 27.5567 39.4215 27.8407 39.8538 27.967C40.094 28.0407 40.7648 28.188 41.5259 28.188C41.9354 28.1669 42.561 28.0827 42.925 27.9986C43.2776 27.9144 43.7668 27.7355 44.0056 27.5987C44.2331 27.462 44.5403 27.2094 44.6768 27.0411C44.8133 26.8727 45.0066 26.5466 45.1204 26.3151C45.2228 26.0836 45.382 25.6101 45.4616 25.2629C45.5412 24.9157 45.6095 24.1161 45.6209 23.4743C45.6209 22.8219 45.5185 21.7171 45.3934 20.9491C45.2682 20.202 45.0521 19.1498 44.9156 18.6343C44.7791 18.1187 44.6768 17.6137 44.6768 17.5295C44.6768 17.4453 44.6426 17.3506 44.5971 17.3191C44.5516 17.2875 44.3469 16.9719 44.1535 16.6141C43.9601 16.2459 43.744 15.9302 43.6871 15.8987C43.6302 15.8671 43.6075 15.7829 43.653 15.7198C43.6871 15.6461 43.6757 15.6146 43.6189 15.6567C43.562 15.6987 43.3572 15.6146 43.1752 15.4567C42.9932 15.3094 42.652 15.1095 42.4359 15.0043C42.2197 14.8991 41.7534 14.7413 41.4121 14.6571C41.0709 14.5624 40.2974 14.3941 39.7059 14.2783C39.1144 14.1626 37.9541 14.0153 37.1465 13.9522C36.3389 13.8785 35.5881 13.7943 35.4971 13.7628C35.4061 13.7312 34.826 13.6996 34.2117 13.6996C33.5975 13.6891 33.0287 13.7207 32.9605 13.7522ZM14.9187 14.3309C15.4533 14.2256 16.443 14.0889 17.1368 14.0152C17.8307 13.9416 19.3322 13.8784 20.4925 13.8679C22.0508 13.8574 22.7561 13.8995 23.2225 14.0152C23.5637 14.1099 23.9618 14.2783 24.0983 14.415C24.2728 14.5694 24.4017 14.8745 24.4851 15.3304C24.5533 15.7092 24.5761 16.351 24.542 16.7508C24.5078 17.1612 24.3941 17.7504 24.2917 18.0661C24.2007 18.3817 23.9277 18.9709 23.7116 19.3813C23.4841 19.7916 23.0518 20.4755 22.7333 20.9069C22.4148 21.3383 21.6186 22.3378 20.9588 23.1165C20.2991 23.8951 19.1957 25.063 18.5018 25.6943C17.8193 26.3361 16.9435 27.041 16.5681 27.2725C16.1927 27.4935 15.6581 27.7775 15.3737 27.8933C14.9415 28.0827 14.6343 28.1142 13.44 28.1142C12.0977 28.1142 11.9726 28.0932 11.3356 27.8091C11.1887 27.8091 10.4326 27.1568 10.073 26.8306C9.91371 26.6096 9.70896 26.1993 9.60659 25.9047C9.49284 25.568 9.41321 24.8315 9.37909 23.853C9.33359 22.7482 9.36771 21.9906 9.51559 21.1173C9.61796 20.4545 9.85684 19.3392 10.0388 18.6447C10.2208 17.9503 10.4938 17.1507 10.6303 16.8561C10.7782 16.572 11.0967 16.1195 11.347 15.867C11.5858 15.6145 11.9953 15.2989 12.2456 15.1621C12.4958 15.0253 12.985 14.8254 13.3262 14.7096C13.6675 14.5939 14.3841 14.4256 14.9187 14.3309Z" fill="#C9A91D"/>
</svg>
