<svg width="56" height="56" viewBox="0 0 56 56" fill="none" xmlns="http://www.w3.org/2000/svg">
<path d="M35.4548 4.26437C36.0876 3.47988 36.8192 2.61494 37.096 2.31322C37.3729 1.99138 37.8079 1.75 38.065 1.75C38.322 1.75 39.4689 2.23276 40.6356 2.81609C41.8023 3.37931 42.7514 3.98276 42.7712 4.12356C42.7712 4.24425 42.8898 4.54598 43.0085 4.76724C43.226 5.08908 43.2062 5.29023 43.0085 5.81322C42.791 6.39655 42.8107 6.57759 43.661 8.16667L43.2062 10.3391C42.9492 11.5259 42.5932 13.2356 42.435 14.1207C42.1186 15.7299 42.1186 15.7299 42.6525 17.4397C42.9492 18.3851 43.3842 20.3764 43.661 21.8649C43.9181 23.3534 44.3531 25.6667 44.6497 26.9943C44.9266 28.3218 45.2429 29.75 45.5395 30.9167H47.0226C48.0706 30.9167 48.5057 30.9971 48.5452 31.1782C48.5452 31.2989 48.5847 31.5 48.5847 31.6207C48.6045 31.7414 48.7034 31.9626 48.8023 32.1236C48.9209 32.3046 49 35.6034 49 48.5977L48.5056 48.8592C48.2288 49 47.6949 49.3017 47.3192 49.5431C46.7062 49.9253 46.6469 50.046 46.726 50.6293L45.3023 52.2787C44.8475 52.6408 43.1469 53.3247 42.8701 53.4454C42.5932 53.5862 40.3983 53.908 37.6299 54.0287C34.9605 54.1494 31.9153 54.25 30.8475 54.25C30.7288 54.2098 24.0254 54.2701 21.3955 54.1897C18.7458 54.0891 16.0169 53.8477 14.9887 53.7471C13.565 53.6264 12.4379 53.2443 12.0226 52.9425C11.4887 52.9425 10.0452 52.1379 9.84746 51.9368L9.25192 51.0316C9.31463 50.85 9.35311 50.6469 9.35311 50.4684C9.35311 49.9052 9.25424 49.7845 8.50282 49.4224C8.04802 49.2011 7.5339 48.8994 7.35593 48.7586C7.0791 48.5374 7.03955 47.6925 7 41.5776C7 37.7557 7.0791 33.7931 7.37571 30.9167H10.5395L10.8362 29.4684C10.9944 28.6638 11.3503 27.0144 11.6271 25.7874C11.8842 24.5603 12.339 22.3477 13.1497 18.1437L12.596 14.1207C12.1412 10.7011 12.1017 9.89655 12.2797 8.79023C12.4181 7.84483 12.4181 7.30172 12.2599 6.87931C12.1412 6.55747 11.9237 6.0546 11.7853 5.77299C11.5678 5.35057 11.5678 5.22988 11.8842 4.86782C12.1017 4.64655 12.3192 4.3046 12.3983 4.10345C12.4576 3.9023 12.8136 3.72126 13.2486 3.6408C13.6638 3.58046 14.5339 3.25862 15.1864 2.93678C15.9774 2.53448 16.6036 2.35345 17.065 2.39368C17.6384 2.43391 17.8362 2.59483 18.2119 3.25862C18.4689 3.70115 19.1808 4.96839 20.9209 8.08621L22.7006 9.03161C24.1638 9.81609 24.7768 10.0374 26.161 10.2184C27.5452 10.3994 28.1384 10.3793 29.6215 10.1178C30.8672 9.87644 31.7966 9.5546 32.7458 9.03161L32.8008 9.00117C34.0909 8.28722 34.1083 8.27762 33.9718 7.58333C33.9124 7.20115 33.952 6.5977 34.0706 6.27586C34.209 5.95402 34.822 5.04885 35.4548 4.26437Z" fill="#C9A91D"/>
</svg>
