<svg width="16" height="16" viewBox="0 0 16 16" fill="none" xmlns="http://www.w3.org/2000/svg">
    <path
        d="M13.6 12C13.8267 12 14.0167 11.9233 14.17 11.77C14.3233 11.6167 14.4 11.4267 14.4 11.2V9.6H16V6.4H14.4V4.8C14.4 4.57333 14.3233 4.38333 14.17 4.23C14.0167 4.07667 13.8267 4 13.6 4H0.8C0.573334 4 0.383333 4.07667 0.23 4.23C0.0766668 4.38333 0 4.57333 0 4.8V11.2C0 11.4267 0.0766668 11.6167 0.23 11.77C0.383333 11.9233 0.573334 12 0.8 12H13.6ZM12.8 10.4H9.6V5.6H12.8V10.4Z"
        fill="#A8A3A0" />
</svg>